# xmcd CD database file
#
# Track frame offsets:
#	150
#	13897
#	24972
#	40687
#	58445
#	74422
#	89352
#	101825
#	121937
#	136267
#	153245
#	170317
#	187805
#
# Disc length: 2678 seconds
#
# Revision: 2
# Processed by: cddbd v1.5.2PL0 Copyright (c) Steve Scherf et al.
# Submitted via: CDex 1.70beta2
#
DISCID=a70a740d
DTITLE=Lasse Stefans - Fredens duva
DYEAR=1985
DGENRE=Danseband
TTITLE0=Fredens duva
TTITLE1=Min ljuvaste dröm - (In The still of the night)
TTITLE2=Katmandu
TTITLE3=Min barndoms gröna dal
TTITLE4=Farväl min vän
TTITLE5=Två som tänder  - (Sweet pretender)
TTITLE6=Gubben i skärgår´n
TTITLE7=En gåva från himmelen - (Deserted from heaven)
TTITLE8=Jag skall vänta
TTITLE9=Huset i dalen 
TTITLE10=Joanna
TTITLE11=Som en dröm - (Ich wünsch dir die hölle auf erden)
TTITLE12=Ute på landet
EXTD=Album: Fredens Duva\nArtist: Lasse Stefans YEAR: 1985
EXTT0=
EXTT1=
EXTT2=
EXTT3=
EXTT4=
EXTT5=
EXTT6=
EXTT7=
EXTT8=
EXTT9=
EXTT10=
EXTT11=
EXTT12=
PLAYORDER=
